<svg xmlns="http://www.w3.org/2000/svg" xmlns:xlink="http://www.w3.org/1999/xlink" viewBox="0 0 1265 216"><defs><style>.cls-1{fill:#433568;}.cls-2{opacity:0.36;fill:url(#linear-gradient);}.cls-3{opacity:0.34;fill:url(#linear-gradient-2);}.cls-4{opacity:0.08;}.cls-5{fill:#fff;}</style><linearGradient id="linear-gradient" x1="374" y1="108" x2="1265" y2="108" gradientUnits="userSpaceOnUse"><stop offset="0" stop-color="#412d4a"/><stop offset="1" stop-color="#9077c4"/></linearGradient><linearGradient id="linear-gradient-2" x1="150.53" x2="1000.64" xlink:href="#linear-gradient"/></defs><title>Catalyst Temp BG</title><g id="Layer_2" data-name="Layer 2"><g id="Layer_1-2" data-name="Layer 1"><rect class="cls-1" width="1265" height="216"/><path class="cls-2" d="M808.69,0S727,164,374,216H962.78S1230,193.86,1265,125.43V0Z"/><path class="cls-3" d="M512.78,0S498.06,189,150.53,216H704.61S1030,119,998.49,0Z"/><g class="cls-4"><path class="cls-1" d="M124.43,56c-6.89-5.71-17.07-8.37-32-8.37H40.84L40.4,49.1a22.75,22.75,0,0,0-1.09,8.18l.1,1.53,1.5.33c4,.87,7.8,1.44,11.89,2v98.24l-3,.31c-3.11.31-6.33.64-9.38,1.26l-1.74.35.73,11.82H91.27l.29-1.69a25.83,25.83,0,0,0,0-8.41l-.24-1.4-1.4-.26c-2.89-.53-8.06-1-12.63-1.46-1.93-.18-3.79-.36-5.31-.53V129.43a121.09,121.09,0,0,0,18.75,1.67c31.87,0,44.87-12.85,44.87-44.37C135.59,72.29,131.94,62.24,124.43,56Zm-14.09,53.59c-4.13,5.58-11.29,8.18-22.54,8.18h0c-1.49,0-3.08,0-4.71-.14L71.76,117V62.27l8.89-.14,2.95,0c28.71,0,31.86,7.6,31.86,23.72C115.46,97.64,113.93,104.75,110.33,109.61Z"/><circle class="cls-1" cx="167.22" cy="109.39" r="12.04"/><path class="cls-1" d="M57.86,0H0V63.83A125,125,0,0,1,57.86,0Z"/><path class="cls-1" d="M0,156.92V216H49.58A124.94,124.94,0,0,1,0,156.92Z"/><path class="cls-1" d="M144.29,58.95l13.15,2.49V94.12a18,18,0,0,1,19.08-.29V61.52a76.14,76.14,0,0,0,13.14-2.87l1.54-.54L190,47.65H145.29l-.58,1a11.78,11.78,0,0,0-1.26,5.1,11.49,11.49,0,0,0,.42,4.15Z"/><path class="cls-1" d="M191.52,161.87l-15-2.74V124.95a18,18,0,0,1-19.08-.29V159c-4.54.54-9.69,1.17-13.71,2.56l-1.52.53,1.1,11h47.22l.58-1.05a15.21,15.21,0,0,0,1.26-5.77,9.18,9.18,0,0,0-.42-3.4Z"/><path class="cls-1" d="M205.61,168.51a5.08,5.08,0,0,0-10.15,0,5.08,5.08,0,0,0,10.15,0Zm-5,3.95a3.95,3.95,0,1,1,3.76-3.92A3.78,3.78,0,0,1,200.58,172.45Z"/><path class="cls-1" d="M1265,0H173.14a124.52,124.52,0,0,1,8.28,216H1265Z"/><path class="cls-1" d="M201.69,168.66v-.06a1.27,1.27,0,0,0,1-1.14,1.37,1.37,0,0,0-.48-1.08,3.08,3.08,0,0,0-1.72-.36,10,10,0,0,0-1.9.15v4.94h1.14v-2h.54c.63,0,.93.24,1,.78a4.22,4.22,0,0,0,.39,1.2H203a3.76,3.76,0,0,1-.36-1.23A1.46,1.46,0,0,0,201.69,168.66Zm-1.36-.36h-.54v-1.42a2.76,2.76,0,0,1,.63-.06c.72,0,1.05.3,1.05.75S201,168.3,200.34,168.3Z"/><path class="cls-5" d="M200.43,166.82a2.76,2.76,0,0,0-.63.06v1.42h.54c.63,0,1.14-.21,1.14-.72S201.15,166.82,200.43,166.82Z"/><path class="cls-5" d="M240,110.37A124.48,124.48,0,0,0,173.14,0H57.86A125,125,0,0,0,0,63.83v93.09A124.94,124.94,0,0,0,49.58,216H181.42A124.41,124.41,0,0,0,240,110.37ZM144.7,48.7l.58-1H190l1.25,10.46-1.54.54a76.14,76.14,0,0,1-13.14,2.87v32.3a18,18,0,0,0-19.08.29V61.43l-13.15-2.49-.43-1a11.49,11.49,0,0,1-.42-4.15A11.78,11.78,0,0,1,144.7,48.7Zm34.55,60.69a12,12,0,1,1-12-12A12,12,0,0,1,179.25,109.39ZM90.72,131.1A121.09,121.09,0,0,1,72,129.43v29.92c1.52.16,3.38.34,5.31.53,4.57.43,9.75.93,12.63,1.46l1.4.26.24,1.4a25.83,25.83,0,0,1,0,8.41l-.29,1.69H39.43l-.73-11.82,1.74-.35c3.06-.62,6.27-.95,9.38-1.26l3-.31V61.12c-4.09-.54-7.9-1.11-11.89-2l-1.5-.33-.1-1.53A22.75,22.75,0,0,1,40.4,49.1l.44-1.45H92.4c15,0,25.14,2.66,32,8.37,7.51,6.22,11.16,16.27,11.16,30.72C135.59,118.25,122.59,131.1,90.72,131.1ZM191.1,172l-.58,1.05H143.3l-1.1-11,1.52-.53c4-1.39,9.17-2,13.71-2.56V124.66a18,18,0,0,0,19.08.29v34.18l15,2.74.43,1a9.18,9.18,0,0,1,.42,3.4A15.21,15.21,0,0,1,191.1,172Zm4.36-3.54a5.08,5.08,0,1,1,5.09,5A5,5,0,0,1,195.46,168.51Z"/><path class="cls-5" d="M83.6,62.1l-2.95,0-8.89.14V117l11.32.64c1.64.1,3.22.14,4.71.14h0c11.25,0,18.41-2.6,22.54-8.18,3.59-4.86,5.13-12,5.13-23.79C115.46,69.7,112.32,62.1,83.6,62.1Z"/><path class="cls-5" d="M200.55,164.56a3.95,3.95,0,0,0,0,7.89,3.78,3.78,0,0,0,3.76-3.92A3.82,3.82,0,0,0,200.55,164.56Zm1.17,6.54a4.22,4.22,0,0,1-.39-1.2c-.09-.54-.39-.78-1-.78h-.54v2h-1.14v-4.94a10,10,0,0,1,1.9-.15,3.08,3.08,0,0,1,1.72.36,1.37,1.37,0,0,1,.48,1.08,1.27,1.27,0,0,1-1,1.14v.06a1.46,1.46,0,0,1,.9,1.2,3.76,3.76,0,0,0,.36,1.23Z"/></g></g></g></svg>