<?xml version="1.0" encoding="utf-8"?>
<!-- Generator: Adobe Illustrator 21.0.1, SVG Export Plug-In . SVG Version: 6.00 Build 0)  -->
<svg version="1.1" id="Layer_1" xmlns="http://www.w3.org/2000/svg" xmlns:xlink="http://www.w3.org/1999/xlink" x="0px" y="0px"
	 viewBox="0 0 72.7 38" style="enable-background:new 0 0 72.7 38;" xml:space="preserve">
<style type="text/css">
	.st0{fill:#FFB635;}
</style>
<g>
	<path class="st0" d="M62,29.2c-1.6,0.3-2.1-1.2-2.8-1.9c-1.3-1.2-2.6-2.5-3.9-3.8c-1.5-1.4-2.7-3-4.3-4.2c-0.3-0.2-0.2-0.6-0.1-1
		c0.1-0.3,0.4-0.4,0.7-0.4c0.6,0.1,1.3,0.1,1.6,0.4c2,2,3.9,4.2,6,6.2c0.5,0.5,1.1,1.2,1.7,1.6c0.7,0.4,1.7,0.6,2.6-0.4
		c2-2.2,4.2-4.2,6.3-6.3c0.7-0.7,1.1-1.6,2.2-1.5c0.3,0,0.7,0,0.9,0.3c0.1,0.3,0.2,0.8-0.1,1c-1.5,0.7-2.2,2.2-3.4,3.1
		c-1.3,0.9-2.1,2.4-3.3,3.4C64.7,26.9,63.8,28.7,62,29.2z"/>
	<circle class="st0" cx="19" cy="19" r="19"/>
</g>
</svg>
