<?xml version="1.0" encoding="utf-8"?>
<!-- Generator: Adobe Illustrator 21.0.1, SVG Export Plug-In . SVG Version: 6.00 Build 0)  -->
<svg version="1.1" id="Layer_1" xmlns="http://www.w3.org/2000/svg" xmlns:xlink="http://www.w3.org/1999/xlink" x="0px" y="0px"
	 viewBox="0 0 40 34.7" style="enable-background:new 0 0 40 34.7;" xml:space="preserve">
<style type="text/css">
	.st0{fill:#FFFFFF;}
</style>
<g>
	<path class="st0" d="M16.6,27.7c-5,0-10.1,0-15.1,0c-0.5,0-1.2,0.3-1.5-0.5c-0.2-0.7,0.5-0.7,0.8-1c0.9-1.1,1.8-2.1,2.9-3
		C4.2,22.9,4,22.3,4,21.8c0-2.6,0.2-5.2,0-7.7c-0.2-1.9,0.7-3.3,1.7-4.2c1.2-1,1-2.8,2.6-3.4c0.2-0.1,0.2-0.6,0.3-0.6
		c1.7,0.2,2.5-2,4.3-1.7c0.4,0.1,0.8-0.1,0.9-0.6c0.1-1,0.8-1.6,1.2-2.4c0.9-1.9,2.2-1,3.3-0.9c1.3,0.1,1.1,1.3,1.1,2.2
		c0,1.3,0.5,1.8,1.8,1.8c0.9,0,2-0.3,2.4,1.1c0.1,0.4,0.8,0.4,0.9,0.2c0.3-0.9,1.5-1.1,1.6-1.9c0.2-1.4,1.4-1.6,2.2-2.3
		c1.9-1.8,4-0.8,6-1.2c1.4-0.3,1.6,1.3,2.6,1.3c1.4,0.1,1.4,1.4,2,2c1.9,2,0.9,4.2,1.2,6.3c0.2,1.3-1.4,1.4-1.4,2.5
		c0,1.3-1.3,1.3-1.9,1.9c-1.7,1.6-3.7,1.1-5.6,1.2c-0.7,0-0.8,0.5-0.8,1.1c0,2,0,4,0,6c0,1.3,1.3,1.8,2.1,2.5
		c0.8,0.7,0.7,1.4,0.7,2.1c0,1-0.9,0.7-1.5,0.7C26.6,27.7,21.6,27.7,16.6,27.7C16.6,27.7,16.6,27.7,16.6,27.7z M17,25
		c3.1,0,6.2,0,9.3,0c0.6,0,1.2,0,1.7-0.1c0.7-0.1,1.1-0.7,0.3-1.1c-1-0.5-0.7-1.3-0.8-2c-0.4-3,1-6.2-1.3-8.9
		c-1.2-1.4-1.3-3.4-2.8-4.8c-1.2-1.2-2.7-1.8-4.2-2.2c-1.7-0.5-3.6-0.1-5.5-0.1c-0.5,0-1,0-1.4,0.5c-0.7,0.8-1.5,1.4-2.3,2.1
		c-1.1,1-2.7,1.9-3.1,3.2c-0.6,2.1-2.1,3.9-1.6,6.3c0.3,1.8,0.2,3.7,0,5.5C5.4,24.7,6,25,7.2,25C10.4,24.9,13.7,25,17,25z M38.4,7.7
		c0.3-2.6-3.6-6.2-6.1-6.2c-2.6,0-6.2,3.6-6.2,6.2c0,2.6,3.6,6.2,6.2,6.2C34.8,13.9,38.7,10.3,38.4,7.7z"/>
	<path class="st0" d="M12.3,31.5c0.1-0.4-0.1-0.9,0.5-1c0.4-0.1,0.9-0.2,1,0.4c0.2,1,1,0.8,1.6,1c0.2,0.1,0.5,0,0.7,0.1
		c1.8,2,2.4-0.3,3.2-1.1c0.9-0.8,1.7-0.4,2.5-0.2c0.3,0.1,0.3,0.6,0,0.9c-1,0.8-1.6,1.9-2.6,2.7c-0.9,0.8-2.3,0.2-3.5,0.3
		c-1.7,0.2-2.1-1.3-3.1-2C12.3,32.4,12.3,31.8,12.3,31.5z"/>
</g>
</svg>
