<svg xmlns="http://www.w3.org/2000/svg" viewBox="0 0 628.46 159.74"><title>Catalyst Logo</title><path d="M79.87,2.68A77.62,77.62,0,1,0,157.49,80.3,77.62,77.62,0,0,0,79.87,2.68Z" style="fill:#5c0a6b;opacity:0.44"/><path d="M79.87,6A75.17,75.17,0,0,0,10.06,109.54,76.08,76.08,0,0,0,134,134.71,77,77,0,0,0,109.51,9.07,77.61,77.61,0,0,0,79.87,3Zm0-3a78.17,78.17,0,0,1,72.59,107.68,79.08,79.08,0,0,1-128.8,26.15A80,80,0,0,1,49.09,6.3,80.62,80.62,0,0,1,79.87,0Z" style="fill:#fff"/><path d="M340.23,111.69a18.81,18.81,0,0,1-10.77,3.63c-7.3.1-11.64-4.63-11.64-14.31V68.63h-7.5v-3.5h7.5V52.4h3.95V65.13h17.47v3.56H321.78v31.84c0,7.3,2.87,10.85,8.19,10.75a15.35,15.35,0,0,0,8.68-3Z" style="fill:#fff"/><path d="M609,49.59V60.76h-.71V49.59h-4v-.65h8.73v.65Z" style="fill:#fff"/><path d="M627.78,60.74V49.86l-4.86,9.58h-.32l-4.86-9.58V60.74h-.68V48.94h1l4.78,9.32,4.65-9.32h1V60.81Z" style="fill:#fff"/><path d="M226.82,70.94l-2.36,3a22.81,22.81,0,0,0-15.88-6.22c-12.32,0-21.21,9-21.21,21.81s8.87,22,21.21,22a21.45,21.45,0,0,0,16.77-7.2l2.46,2.65a24.78,24.78,0,0,1-19.33,8.37c-14.57,0-25.16-10.65-25.16-25.74s10.65-25.9,25.16-25.9A25.53,25.53,0,0,1,226.82,70.94Z" style="fill:#fff"/><path d="M283.23,105.08c-4.34,7.11-11.64,10.26-20.53,10.26-10.17,0-17-6.48-17-15.09s7.3-13.81,19.13-13.81h18.24V81.4c-.1-8.68-5.13-13.91-15.38-13.91-6.48,0-11.83,2.56-17.27,6.7l-2-3.16c6.12-4.44,12-7.3,19.83-7.3,12.13,0,18.75,6.7,18.84,17.35l.21,34.22h-4Zm0-6.6v-8.4h-18c-10.05,0-15.59,3.45-15.59,10.05s5.23,11.45,13.61,11.45c9.57,0,16.77-4.13,19.93-13.11Z" style="fill:#fff"/><path d="M395.55,105.08c-4.34,7.11-11.64,10.26-20.53,10.26-10.17,0-17-6.48-17-15.09s7.3-13.81,19.13-13.81h18.24V81.4c-.1-8.68-5.13-13.91-15.38-13.91-6.48,0-11.83,2.56-17.27,6.7l-2-3.16c6.12-4.44,12-7.3,19.83-7.3,12.13,0,18.75,6.7,18.84,17.35l.21,34.22h-4Zm0-6.6v-8.4h-18c-10.05,0-15.59,3.45-15.59,10.05s5.23,11.45,13.61,11.45c9.57,0,16.85-4.13,19.93-13.11Z" style="fill:#fff"/><path d="M428.88,115.31V42h4.06v73.27Z" style="fill:#fff"/><path d="M476.51,122.63c-3.16,7.69-8.19,11.83-14.21,11.83a16.19,16.19,0,0,1-9.71-3l1.78-3.56a13.45,13.45,0,0,0,7.72,2.38c4.63,0,8.58-3.24,11-9.28l2.4-5.73L454.31,63.85h4.34l18.94,46.61,18.49-46.61h4.34Z" style="fill:#fff"/><path d="M547.12,67.78l-1.78,3.35a24.28,24.28,0,0,0-13-3.64c-7.2,0-12.82,2.75-12.82,8.87,0,13.81,30,7,30,25.16,0,9.57-8.58,13.81-17.81,13.81a27.36,27.36,0,0,1-18.84-7.11l1.88-3.16a25.24,25.24,0,0,0,17.16,6.48c7.2,0,13.42-2.87,13.71-9.37.29-14.38-30.14-7.9-30.14-25.5,0-9,7.79-13,16.87-13A27.89,27.89,0,0,1,547.12,67.78Z" style="fill:#fff"/><path d="M597.42,111.69a18.79,18.79,0,0,1-10.68,3.63c-7.3.1-11.64-4.63-11.64-14.31V68.63h-7.5v-3.5h7.5V52.4H579V65.13h17.4v3.56H579v31.84c0,7.3,2.87,10.85,8.19,10.75a15.35,15.35,0,0,0,8.68-3Z" style="fill:#fff"/><path d="M97.92,47.51l8.3,1.62V69.7a11.33,11.33,0,0,1,12-.18V49.14a48,48,0,0,0,8.29-1.81l1-.34-.71-6.6H98.56l-.37.66a7.43,7.43,0,0,0-.79,3.24,7.25,7.25,0,0,0,.28,2.57Z" style="fill:#fff"/><circle cx="112.4" cy="79.35" r="7.59" style="fill:#fff"/><path d="M127.73,112.46l-9.45-1.73V89.16A11.33,11.33,0,0,1,106.21,89v21.69a44.21,44.21,0,0,0-8.66,1.62l-1,.34.7,6.93h29.8l.37-.66a9.6,9.6,0,0,0,.79-3.64,5.8,5.8,0,0,0-.26-2.15Z" style="fill:#fff"/><path d="M85.39,45.66C81,42,74.61,40.39,65.17,40.39H32.64l-.28.92a14.36,14.36,0,0,0-.68,5.15v1l.94.21c2.51.55,4.86.91,7.51,1.25v62l-1.88.19c-2,.19-4,.4-5.92.79l-1,.23.45,7.46h32.7l.18-1.07a16.3,16.3,0,0,0,0-5.31l-.15-.89-.89-.16c-1.83-.34-5.08-.65-8-.92l-3.29-.32V92A76.41,76.41,0,0,0,64.17,93c20.11,0,28.31-8.09,28.31-28C92.44,55.93,90.12,49.6,85.39,45.66Zm-8.9,33.82c-2.61,3.53-7.12,5.16-14.21,5.16h0c-.94,0-1.94,0-3-.1l-7.14-.45V49.61l5.62-.08h1.85c18.11,0,20.11,4.86,20.11,15C79.73,71.94,78.76,76.42,76.49,79.48Z" style="fill:#fff"/><path d="M133.43,113.53a3.14,3.14,0,1,0,3.24,3.12,3.14,3.14,0,0,0-3.24-3.12Zm0,5.6a2.49,2.49,0,1,1,2.38-2.6s0,.08,0,.13a2.38,2.38,0,0,1-2.26,2.49h-.1Z" style="fill:#fff"/><path d="M134.14,116.75h0a.79.79,0,0,0,.65-.73.86.86,0,0,0-.31-.68,1.94,1.94,0,0,0-1.08-.23,6.31,6.31,0,0,0-1.2.1v3.12h.73v-1.25h.36c.4,0,.58.15.65.5a2.67,2.67,0,0,0,.24.76h.73a2.38,2.38,0,0,1-.23-.78A.92.92,0,0,0,134.14,116.75Zm-.86-.28h-.34v-.89a1.75,1.75,0,0,1,.4,0c.45,0,.66.19.66.47S133.68,116.47,133.28,116.47Z" style="fill:#fff"/></svg>