<svg xmlns="http://www.w3.org/2000/svg" viewBox="0 0 666.67 148.3"><title>Software Button</title><path d="M345.37,49.61l-4,8.38c-4.46-2.59-10.06-4.4-13.5-4.4-2.77,0-4.64,1-4.64,3.07,0,7.29,22.3,3.13,22.3,18.38,0,8.44-7.47,12.89-16.87,12.89a31.45,31.45,0,0,1-19.28-6.75l4.16-8.26c4.34,3.8,10.85,6.33,15.25,6.33,3.37,0,5.48-1.27,5.48-3.68,0-7.47-22.3-3-22.3-18,0-7.77,6.69-12.71,16.81-12.71A31.66,31.66,0,0,1,345.37,49.61Z" style="fill:#fff"/><path d="M395.33,66.42c0,12.29-9.76,21.63-22.84,21.63s-22.78-9.28-22.78-21.63S359.47,45,372.49,45,395.33,54.19,395.33,66.42Zm-34.65.06c0,7.11,5.48,12.59,11.93,12.59s11.69-5.48,11.69-12.59S379.12,54,372.61,54A12.12,12.12,0,0,0,360.68,66.48Z" style="fill:#fff"/><path d="M412.86,53.83v9.76h18.92V72H412.86V87.57H402.14V45.39h31.27v8.44Z" style="fill:#fff"/><path d="M459.2,54V87.57H448.47V54H435.88V45.33h36V54Z" style="fill:#fff"/><path d="M514,87.57,506.2,58.41l-8,29.16H487.16l-13.8-42.18h11.45l8.25,31,8.07-31h10.48l8.25,31,8.13-31h11L525.06,87.57Z" style="fill:#fff"/><path d="M550.25,79.8l-3.07,7.77h-11l18.2-42.18h11l17.78,42.18H571.7l-3-7.77Zm9.28-23.74-6.15,15.61h12.17Z" style="fill:#fff"/><path d="M607.37,75.7h-8.44V87.57H588.21V45.39h18.86c11.15,0,17.53,5.3,17.53,14.7,0,6.45-2.71,11.09-7.65,13.56l8.86,13.92H613.64Zm-.3-8.44c4.64,0,7.35-2.35,7.35-6.81s-2.71-6.63-7.35-6.63h-8.13V67.27Z" style="fill:#fff"/><path d="M643.71,53.83v8.38h20.13v8.44H643.71v8.5h23v8.44H633V45.39h33v8.44Z" style="fill:#fff"/><path d="M185.32.07q45.51,0,91,0c8,0,10.23,2.13,10.24,10,0,33.93,0,74.34,0,108.26,0,7.42-2.33,9.68-9.89,9.69Q185.35,128,94,128c-8.93,0-11.1-2.27-11.1-11.23,0-32.66.31-71.82-.19-104.47C82.57,2.67,86.63-.05,95.56,0,125.48.18,155.4.07,185.32.07Zm0,10.08c-28.25,0-56.51.09-84.76-.09-4.56,0-6.55,7.09-6.5,12.48.3,29.94.23,59.88,0,89.82,0,4.35,1,5.67,5.54,5.66q85.71-.24,171.42,0c4.56,0,5.53-1.39,5.5-5.69q-.27-44.91,0-89.82c0-4.64-1-12.52-5.87-12.48C242.3,10.27,213.84,10.15,185.37,10.15Z" style="fill:#fff"/><path d="M185.4,148.24H62.71a33.53,33.53,0,0,1-5.05-.08c-5.3-.82-6.45-4.53-6.42-9.23,0-5.45,4.11-3.18,6.4-3.19,34.36-.14,68.72-.11,103.08-.08,2.5,0,5.42-1,6.19,3.16.42,2.29,3,1.86,4.85,1.87q13.6,0,27.19,0c1.44,0,3.67.49,4.1-.86,2.07-6.51,7.33-4.08,11.38-4.1q49.33-.22,98.66,0c2.29,0,6.37-2.28,6.43,3.15.05,4.68-1,8.45-6.38,9.24a39.09,39.09,0,0,1-5.68.11Z" style="fill:#fff"/><path d="M204.31,28.41l9.46,1.79V53.72a12.95,12.95,0,0,1,13.73-.21V30.27A54.78,54.78,0,0,0,237,28.2l1.11-.39-.9-7.52H205l-.42.75a8.48,8.48,0,0,0-.91,3.67,8.27,8.27,0,0,0,.3,3Z" style="fill:#fff"/><circle cx="220.8" cy="64.7" r="8.66" style="fill:#fff"/><path d="M238.29,102.46l-10.79-2V75.9a13,13,0,0,1-13.73-.21v24.72a50.4,50.4,0,0,0-9.87,1.84l-1.1.38.79,7.9h34l.42-.76a10.94,10.94,0,0,0,.91-4.15,6.61,6.61,0,0,0-.3-2.45Z" style="fill:#fff"/><path d="M190,26.31c-5-4.11-12.28-6-23-6H129.88l-.31,1a16.37,16.37,0,0,0-.78,5.89l.07,1.1,1.08.23c2.87.63,5.61,1,8.56,1.42v70.67l-2.15.22c-2.24.23-4.55.46-6.75.91l-1.25.26.53,8.5h37.29l.21-1.22a18.59,18.59,0,0,0,0-6l-.17-1-1-.19c-2.08-.38-5.8-.74-9.09-1.05l-3.82-.38V79.12a87.12,87.12,0,0,0,13.49,1.2C188.7,80.32,198,71.08,198,48.4,198,38,195.42,30.78,190,26.31ZM179.88,64.86c-3,4-8.12,5.89-16.21,5.89h0c-1.07,0-2.21,0-3.39-.1l-8.14-.46V30.8l6.4-.1,2.12,0c20.66,0,22.92,5.46,22.92,17.06C183.57,56.25,182.47,61.37,179.88,64.86Z" style="fill:#fff"/><path d="M244.78,103.68a3.58,3.58,0,1,0,3.64,3.55A3.59,3.59,0,0,0,244.78,103.68Zm0,6.39a2.84,2.84,0,1,1,2.71-2.82A2.72,2.72,0,0,1,244.81,110.07Z" style="fill:#fff"/><path d="M245.61,107.34v0a.91.91,0,0,0,.74-.82,1,1,0,0,0-.35-.78,2.21,2.21,0,0,0-1.24-.26,7.2,7.2,0,0,0-1.36.11v3.55h.82v-1.43h.39c.45,0,.67.17.74.56a3,3,0,0,0,.28.87h.89a2.71,2.71,0,0,1-.26-.89A1,1,0,0,0,245.61,107.34Zm-1-.26h-.39v-1a2,2,0,0,1,.45,0c.52,0,.76.22.76.54S245.09,107.08,244.63,107.08Z" style="fill:#fff"/><polygon points="0 64 24.12 50.08 48.24 36.15 48.24 64 48.24 91.85 24.12 77.92 0 64" style="fill:#fff"/></svg>