<?xml version="1.0" encoding="utf-8"?>
<!-- Generator: Adobe Illustrator 21.0.2, SVG Export Plug-In . SVG Version: 6.00 Build 0)  -->
<svg version="1.1" id="Layer_1" xmlns="http://www.w3.org/2000/svg" xmlns:xlink="http://www.w3.org/1999/xlink" x="0px" y="0px"
	 viewBox="0 0 494.3 120.2" style="enable-background:new 0 0 494.3 120.2;" xml:space="preserve">
<style type="text/css">
	.st0{opacity:0.72;enable-background:new    ;}
	.st1{fill:#6D6D6D;}
	.st2{fill:#FFFFFF;}
	.st3{enable-background:new    ;}
</style>
<title>SOFTWARE</title>
<g class="st0">
	<path class="st1" d="M26.6,25.1h455.7c6.6,0,12,5.4,12,12v48c0,6.6-5.4,12-12,12H26.6c-6.6,0-12-5.4-12-12v-48
		C14.6,30.5,20,25.1,26.6,25.1z"/>
</g>
<g>
	<path class="st2" d="M101.1,87.3c-0.1,0-0.2,0-0.3,0V88h0.2c0.3,0,0.6-0.1,0.6-0.3S101.4,87.3,101.1,87.3z"/>
</g>
<g>
	<path class="st2" d="M60.1,0C26.9,0,0,26.9,0,60.1s26.9,60.1,60.1,60.1s60.1-26.9,60.1-60.1l0,0C120.2,26.9,93.3,0,60.1,0z
		 M74.2,30.3l0.3-0.5H96l0.6,5l-0.7,0.3c-2.1,0.6-4.2,1.1-6.3,1.4v15.6c-2.8-1.7-6.4-1.7-9.2,0.1V36.5L74,35.3l-0.2-0.5
		c-0.2-0.6-0.3-1.3-0.2-2C73.6,31.9,73.8,31.1,74.2,30.3z M90.8,59.6c0,3.2-2.6,5.8-5.8,5.8c-3.2,0-5.8-2.6-5.8-5.8
		c0-3.2,2.6-5.8,5.8-5.8C88.2,53.8,90.8,56.4,90.8,59.6C90.8,59.6,90.8,59.6,90.8,59.6z M48.1,70.1c-3,0-6-0.3-9-0.8v14.4l2.6,0.2
		c2.2,0.2,4.7,0.4,6.1,0.7l0.7,0.1l0.1,0.7c0.2,1.3,0.2,2.7,0,4.1l-0.1,0.8h-25L23,84.7l0.8-0.2c1.5-0.3,3-0.5,4.5-0.6l1.4-0.2V36.3
		c-2-0.3-3.8-0.5-5.7-1l-0.7-0.2v-0.7c-0.1-1.3,0.1-2.7,0.5-4l0.2-0.7h24.8c7.2,0,12.1,1.3,15.5,4c3.6,3,5.4,7.8,5.4,14.8
		C69.8,63.9,63.5,70.1,48.1,70.1z M96.6,89.8l-0.3,0.5H73.5L73,85l0.7-0.2c2.2-0.6,4.4-1,6.6-1.2V67c2.8,1.8,6.4,1.9,9.2,0.1v16.5
		l7.2,1.3l0.2,0.5c0.2,0.5,0.2,1.1,0.2,1.6C97.2,88,97,89,96.6,89.8z M101.1,90.5c-1.3,0-2.4-1.1-2.4-2.4s1.1-2.4,2.4-2.4l0,0
		c1.3,0,2.4,1.1,2.4,2.4S102.4,90.5,101.1,90.5z"/>
</g>
<g>
	<path class="st2" d="M44.7,36.8h-1.4L39,36.9v26.4l5.5,0.3c0.8,0,1.5,0.1,2.3,0.1l0,0c5.4,0,8.9-1.2,10.9-4
		c1.7-2.3,2.5-5.8,2.5-11.5C60.1,40.5,58.5,36.8,44.7,36.8z"/>
</g>
<g>
	<path class="st2" d="M101.1,86.2c-1.1,0-1.9,0.9-1.9,1.9s0.9,1.9,1.9,1.9c1,0,1.9-0.8,1.9-1.8c0,0,0-0.1,0-0.1c0-1-0.7-1.9-1.8-1.9
		C101.2,86.2,101.2,86.2,101.1,86.2z M101.7,89.4c-0.1-0.2-0.2-0.4-0.2-0.6c0-0.3-0.2-0.4-0.5-0.4h-0.3v1h-0.6V87
		c0.3-0.1,0.6-0.1,0.9-0.1c0.3,0,0.6,0,0.8,0.2c0.2,0.1,0.2,0.3,0.2,0.5c0,0.3-0.2,0.5-0.5,0.6l0,0c0.2,0.1,0.4,0.3,0.4,0.6
		c0,0.2,0.1,0.4,0.2,0.6L101.7,89.4z"/>
</g>
<g class="st3">
	<path class="st2" d="M144.1,73.5c2.1,1.3,5.1,2.3,8.3,2.3c4.7,0,7.5-2.5,7.5-6.1c0-3.4-1.9-5.3-6.8-7.1c-5.9-2.1-9.5-5.1-9.5-10.2
		c0-5.6,4.6-9.8,11.6-9.8c3.7,0,6.3,0.9,7.9,1.8l-1.3,3.8c-1.2-0.6-3.6-1.7-6.8-1.7c-4.9,0-6.8,2.9-6.8,5.4c0,3.4,2.2,5,7.1,6.9
		c6.1,2.3,9.2,5.3,9.2,10.6c0,5.5-4.1,10.3-12.6,10.3c-3.5,0-7.2-1-9.2-2.3L144.1,73.5z"/>
	<path class="st2" d="M212.3,60.9c0,12.4-7.5,18.9-16.7,18.9c-9.5,0-16.1-7.4-16.1-18.2c0-11.4,7.1-18.9,16.7-18.9
		C206,42.7,212.3,50.2,212.3,60.9z M184.4,61.4c0,7.7,4.2,14.6,11.5,14.6c7.4,0,11.5-6.8,11.5-14.9c0-7.1-3.7-14.6-11.5-14.6
		C188.3,46.5,184.4,53.6,184.4,61.4z"/>
	<path class="st2" d="M228.9,43.3h19.3v3.9h-14.7v11.9h13.6v3.8h-13.6v16.3h-4.6V43.3z"/>
	<path class="st2" d="M272.2,47.2h-10.9v-3.9h26.6v3.9h-11v32h-4.7V47.2z"/>
	<path class="st2" d="M310.4,79.2l-9.1-35.9h4.9l4.3,18.2c1.1,4.5,2,9,2.7,12.4h0.1c0.6-3.6,1.7-7.8,2.9-12.5l4.8-18.1h4.8l4.4,18.2
		c1,4.3,2,8.5,2.5,12.3h0.1c0.7-3.9,1.8-7.9,2.9-12.4l4.7-18.1h4.7L335,79.2h-4.9l-4.5-18.7c-1.1-4.6-1.9-8.1-2.3-11.7h-0.1
		c-0.6,3.6-1.4,7.1-2.8,11.7l-5.1,18.7H310.4z"/>
	<path class="st2" d="M363,67.9l-3.7,11.3h-4.8l12.2-35.9h5.6l12.3,35.9h-5l-3.8-11.3H363z M374.8,64.3l-3.5-10.3
		c-0.8-2.3-1.3-4.5-1.9-6.6h-0.1c-0.5,2.1-1.1,4.3-1.8,6.5L364,64.3H374.8z"/>
	<path class="st2" d="M400.4,43.7c2.3-0.5,5.7-0.7,8.9-0.7c5,0,8.2,0.9,10.4,2.9c1.8,1.6,2.8,4.1,2.8,6.8c0,4.7-3,7.9-6.8,9.2v0.2
		c2.8,1,4.4,3.5,5.3,7.2c1.2,5,2,8.5,2.8,9.9H419c-0.6-1-1.4-4.1-2.4-8.6c-1.1-5-3-6.8-7.2-7H405v15.6h-4.6V43.7z M405,60.1h4.7
		c5,0,8.1-2.7,8.1-6.8c0-4.6-3.4-6.7-8.3-6.7c-2.2,0-3.8,0.2-4.6,0.4V60.1z"/>
	<path class="st2" d="M458.2,62.3h-14v13h15.6v3.9h-20.2V43.3H459v3.9h-14.8v11.4h14V62.3z"/>
</g>
</svg>
